<?xml version="1.0"?>
<!DOCTYPE svg PUBLIC "-//W3C//DTD SVG 1.1//EN" "http://www.w3.org/Graphics/SVG/1.1/DTD/svg11.dtd">
<!--Phoronix Test Suite v3.6.1 (Arendal) [ http://www.phoronix-test-suite.com/ ]-->
<svg xmlns="http://www.w3.org/2000/svg" xmlns:xlink="http://www.w3.org/1999/xlink" version="1.1" font-family="sans-serif" viewbox="0 0 580 149" width="580" height="149">
  <rect x="1" y="1" width="578" height="147" fill="#FEFEFE" stroke="#454545" stroke-width="1"/>
  <line x1="81" y1="64" x2="81" y2="110" stroke="#454545" stroke-width="1"/>
  <line x1="81" y1="110" x2="565" y2="110" stroke="#454545" stroke-width="1"/>
  <a xlink:href="http://www.phoronix-test-suite.com/" xlink:show="new">
    <text x="565" y="57" font-size="8" text-anchor="end" dominant-baseline="middle" fill="#454545">PHORONIX-TEST-SUITE.COM</text>
  </a>
  <polygon fill="#454545" stroke="#949494" stroke-width="1" points="81,56 90,60.5 90,51.5"/>
  <text x="93" y="57" font-size="8" text-anchor="start" dominant-baseline="middle" fill="#454545">Seconds, Less Is Better</text>
  <rect x="0" y="0" width="580" height="48" fill="#2B6B29"/>
  <a xlink:href="http://openbenchmarking.org/test/pts/rodinia-1.2.1" xlink:show="new">
    <text x="5" y="12" font-size="18" text-anchor="start" dominant-baseline="middle" fill="#FEFEFE">Rodinia v2.4</text>
  </a>
  <text x="5" y="33" font-size="12" text-anchor="start" dominant-baseline="middle" fill="#FEFEFE">Test: OpenMP Leukocyte</text>
  <a xlink:href="http://www.phoronix-test-suite.com/" xlink:show="new">
    <image x="488" y="3.2" width="77" height="40" xlink:href="http://www.phoronix-test-suite.com/external/pts-logo-77x40-white.png"/>
  </a>
  <line x1="81" y1="110" x2="81" y2="99" stroke="#454545" stroke-width="10" stroke-dasharray="1,45"/>
  <text x="76" y="85" font-size="11" text-anchor="end" dominant-baseline="middle" fill="#2B6B29">CompOrg1</text>
  <text x="162" y="115" font-size="11" text-anchor="middle" dominant-baseline="text-before-edge" fill="#454545">7</text>
  <line x1="164" y1="64" x2="164" y2="105" stroke="#BABABA" stroke-width="1" stroke-dasharray="5,5"/>
  <line x1="164" y1="106" x2="164" y2="114" stroke="#454545" stroke-width="1"/>
  <text x="243" y="115" font-size="11" text-anchor="middle" dominant-baseline="text-before-edge" fill="#454545">14</text>
  <line x1="245" y1="64" x2="245" y2="105" stroke="#BABABA" stroke-width="1" stroke-dasharray="5,5"/>
  <line x1="245" y1="106" x2="245" y2="114" stroke="#454545" stroke-width="1"/>
  <text x="324" y="115" font-size="11" text-anchor="middle" dominant-baseline="text-before-edge" fill="#454545">21</text>
  <line x1="326" y1="64" x2="326" y2="105" stroke="#BABABA" stroke-width="1" stroke-dasharray="5,5"/>
  <line x1="326" y1="106" x2="326" y2="114" stroke="#454545" stroke-width="1"/>
  <text x="405" y="115" font-size="11" text-anchor="middle" dominant-baseline="text-before-edge" fill="#454545">28</text>
  <line x1="407" y1="64" x2="407" y2="105" stroke="#BABABA" stroke-width="1" stroke-dasharray="5,5"/>
  <line x1="407" y1="106" x2="407" y2="114" stroke="#454545" stroke-width="1"/>
  <text x="486" y="115" font-size="11" text-anchor="middle" dominant-baseline="text-before-edge" fill="#454545">35</text>
  <line x1="488" y1="64" x2="488" y2="105" stroke="#BABABA" stroke-width="1" stroke-dasharray="5,5"/>
  <line x1="488" y1="106" x2="488" y2="114" stroke="#454545" stroke-width="1"/>
  <rect x="81" y="70" width="328" height="34" fill="#296b69" stroke="#949494" stroke-width="1" xlink:title="CompOrg1: 28.44"/>
  <text x="76" y="98" font-size="9" text-anchor="end" dominant-baseline="middle" fill="#454545">SE +/- 0.14</text>
  <text x="404" y="87" font-size="11" text-anchor="end" dominant-baseline="middle" fill="#FFF">28.44</text>
  <line x1="81" y1="110" x2="565" y2="110" stroke="#454545" stroke-width="1"/>
  <rect x="0" y="132" width="580" height="17" fill="#2B6B29"/>
  <a xlink:href="http://www.phoronix-test-suite.com/" xlink:show="new">
    <text x="565" y="141" font-size="8" text-anchor="end" dominant-baseline="middle" fill="#FEFEFE">Powered By Phoronix Test Suite 3.6.1</text>
  </a>
</svg>
